<?xml version="1.0" standalone="no"?>
<!DOCTYPE svg PUBLIC "-//W3C//DTD SVG 20010904//EN"
 "http://www.w3.org/TR/2001/REC-SVG-20010904/DTD/svg10.dtd">
<svg version="1.0" xmlns="http://www.w3.org/2000/svg"
 width="389.000000pt" height="389.000000pt" viewBox="0 0 389.000000 389.000000"
 preserveAspectRatio="xMidYMid meet">
<metadata>
Created by potrace 1.11, written by Peter Selinger 2001-2013
</metadata>
<g transform="translate(0.000000,389.000000) scale(0.100000,-0.100000)"
fill="#000000" stroke="none">
<path d="M2367 3804 c-1 -1 -25 -4 -53 -7 -28 -2 -56 -7 -62 -11 -7 -4 -17 -4
-22 -1 -6 4 -17 2 -24 -4 -8 -7 -18 -11 -22 -9 -48 12 -332 -113 -411 -182
-13 -11 -26 -20 -28 -20 -3 0 -19 -13 -35 -30 -16 -16 -33 -30 -37 -31 -7 -1
-55 -55 -134 -149 -16 -19 -29 -41 -29 -47 0 -7 -5 -13 -11 -13 -5 0 -15 -13
-20 -30 -6 -16 -14 -30 -18 -30 -4 0 -13 -16 -21 -35 -8 -19 -17 -35 -22 -35
-4 0 -7 -3 -6 -7 0 -5 -2 -17 -7 -28 -4 -11 -18 -48 -32 -83 -13 -34 -26 -81
-28 -103 -2 -22 -7 -44 -11 -50 -3 -6 -7 -25 -8 -42 l-3 -32 59 1 c56 0 72 6
74 25 1 5 2 10 4 12 2 3 7 26 15 77 20 129 128 324 245 440 76 77 176 158 187
152 3 -2 9 1 12 6 15 24 203 105 276 119 48 9 60 11 60 13 0 7 174 20 189 14
8 -3 11 -47 11 -126 l0 -122 -50 -3 c-99 -6 -203 -32 -257 -63 -10 -6 -22 -10
-28 -10 -6 0 -20 -9 -32 -20 -12 -10 -25 -17 -30 -14 -4 3 -8 1 -8 -4 0 -5
-10 -14 -22 -20 -49 -23 -198 -165 -198 -188 0 -7 -7 -15 -16 -18 -8 -3 -13
-10 -9 -15 3 -5 1 -12 -5 -16 -10 -6 -49 -89 -55 -117 -2 -9 -9 -26 -15 -38
-18 -33 -32 -105 -33 -167 -1 -24 -6 -43 -12 -44 -17 -1 -356 0 -553 2 -100 1
-185 -1 -189 -5 -8 -8 -7 -133 2 -171 4 -16 8 -34 9 -40 1 -5 5 -16 9 -22 5
-7 6 -17 2 -22 -3 -6 3 -14 12 -20 10 -6 14 -11 10 -11 -11 0 40 -68 77 -102
16 -15 42 -33 58 -40 15 -7 28 -16 28 -20 0 -5 11 -8 25 -8 14 0 25 -5 25 -10
0 -6 3 -9 8 -8 4 1 28 -2 54 -6 30 -5 48 -14 50 -24 3 -10 4 -64 4 -122 l-1
-105 -35 1 c-55 3 -130 13 -140 19 -6 4 -22 8 -35 11 -26 5 -136 61 -145 74
-3 4 -15 10 -27 14 -13 4 -23 14 -23 22 0 8 -4 14 -9 14 -5 0 -27 18 -48 39
-52 55 -63 68 -63 81 0 6 -4 8 -10 5 -5 -3 -10 1 -10 10 0 9 -7 23 -15 32 -8
8 -13 19 -10 24 4 5 3 9 -2 9 -28 0 -67 180 -66 308 1 39 -2 73 -5 73 -30 6
-481 4 -492 -2 -12 -6 -16 -22 -15 -66 1 -32 -2 -70 -6 -85 -4 -14 -5 -29 -1
-32 3 -3 7 -21 9 -38 1 -18 6 -46 9 -63 3 -16 7 -39 8 -50 2 -12 11 -42 20
-68 9 -26 16 -53 16 -60 0 -12 65 -144 109 -222 25 -44 136 -183 161 -202 9
-6 35 -29 58 -52 23 -23 45 -41 50 -41 4 0 19 -10 33 -22 32 -29 53 -42 106
-68 23 -11 45 -25 48 -30 4 -6 11 -8 16 -5 5 4 9 1 9 -4 0 -6 4 -11 9 -11 5 0
29 -9 55 -20 25 -12 48 -21 51 -20 3 0 20 -6 39 -14 18 -7 53 -17 77 -21 24
-4 53 -9 64 -12 11 -2 35 -7 53 -10 l33 -6 -2 57 c-3 65 -15 80 -68 81 -35 1
-136 27 -176 45 -11 5 -51 23 -88 39 -83 37 -181 105 -260 179 -56 52 -120
133 -152 191 -11 20 -23 38 -26 41 -6 5 -63 123 -75 155 -4 11 -9 30 -10 42
-2 12 -8 32 -14 43 -6 12 -9 24 -6 27 2 3 0 16 -5 30 -5 14 -12 59 -14 99 -4
62 -2 74 13 78 9 3 69 5 133 4 l116 -2 0 -50 c1 -58 7 -90 30 -160 26 -82 102
-222 130 -239 7 -4 13 -12 13 -18 0 -36 254 -219 305 -219 7 0 20 -6 27 -13 7
-7 20 -13 28 -13 8 0 42 -6 75 -14 33 -7 80 -14 105 -15 l45 -1 1 -175 c0 -96
4 -180 8 -187 4 -7 30 -12 60 -12 l52 0 0 161 c-1 88 2 163 6 165 4 3 3 16 -2
29 -7 18 -6 25 2 25 9 0 9 3 1 11 -8 8 -8 20 -3 35 5 13 6 24 2 24 -8 0 -6 74
3 98 3 8 0 10 -7 6 -7 -5 -8 -3 -3 5 9 16 10 384 1 400 -4 6 -4 11 1 11 9 0 9
92 0 107 -14 22 23 36 91 34 155 -6 1044 -6 1048 0 6 11 7 465 1 476 -3 5 -49
9 -104 8 -85 -2 -107 -6 -167 -33 -131 -57 -219 -168 -232 -292 -1 -14 -2 -30
-3 -35 -2 -17 -240 -12 -251 5 -5 8 -6 18 -4 22 3 5 7 28 10 51 5 55 9 73 29
127 9 25 19 53 22 63 3 9 9 17 14 17 5 0 9 7 9 15 0 8 5 15 10 15 6 0 10 7 10
16 0 22 154 172 185 180 14 3 25 10 25 14 0 8 59 34 73 31 4 0 7 4 7 9 0 6 6
10 13 8 6 -1 23 4 35 11 13 7 26 10 29 7 3 -2 17 0 32 5 14 6 78 10 142 10 86
-1 118 2 121 11 7 21 3 462 -4 474 -6 9 -202 17 -211 8z m90 -983 l-2 -126
-120 -1 c-66 -1 -126 1 -133 4 -31 12 16 136 70 182 47 40 108 68 148 67 l38
-1 -1 -125z m-1137 -266 c4 -16 3 -42 -1 -57 -4 -15 -4 -30 0 -32 6 -4 6 -35
-1 -106 -3 -23 -7 -25 -52 -23 -64 2 -131 44 -174 107 -18 27 -31 51 -28 53 2
2 0 20 -6 40 -7 26 -6 38 2 43 6 4 66 7 133 6 l122 -1 5 -30z"/>
<path d="M2468 2425 c-1 -5 -2 -252 -3 -548 -1 -404 -4 -540 -13 -546 -6 -4
-262 -7 -567 -7 -486 1 -555 -1 -556 -14 -3 -39 -4 -456 -1 -466 5 -18 202 -7
255 15 15 6 27 8 27 6 0 -3 9 3 20 13 12 9 23 16 25 14 5 -2 56 40 79 65 43
47 84 131 91 188 4 28 9 52 12 55 9 10 243 6 246 -5 5 -15 2 -74 -7 -125 -9
-51 -79 -188 -134 -262 -54 -72 -228 -185 -292 -190 -3 0 -14 -5 -25 -10 -19
-11 -40 -13 -190 -21 -38 -3 -79 -5 -90 -6 -20 -1 -20 -8 -20 -239 1 -131 4
-242 7 -247 11 -17 276 -3 356 19 29 8 55 15 57 15 3 1 6 1 8 2 1 0 9 2 17 4
51 13 166 58 172 68 4 7 8 9 8 5 0 -4 15 1 33 12 17 11 49 28 70 37 20 9 37
19 37 23 0 4 18 20 41 34 22 15 62 48 87 73 26 25 48 44 50 43 2 0 15 14 30
32 15 19 33 40 40 48 37 43 62 76 62 82 0 4 6 13 13 20 6 7 25 38 41 68 16 30
34 58 40 62 6 4 8 8 3 8 -4 0 -1 12 7 27 26 51 58 155 58 186 -1 9 3 17 8 17
5 0 7 6 4 13 -3 8 -1 25 5 39 14 36 1 47 -58 51 -59 3 -66 -3 -75 -69 -4 -33
-17 -87 -30 -129 -2 -5 -4 -13 -5 -17 -3 -15 -47 -104 -65 -133 -37 -58 -71
-110 -76 -115 -3 -3 -25 -30 -50 -60 -47 -57 -106 -114 -146 -140 -12 -8 -42
-29 -66 -46 -41 -28 -147 -83 -172 -89 -6 -1 -24 -8 -41 -14 -16 -7 -41 -15
-55 -17 -14 -3 -32 -7 -40 -11 -47 -19 -218 -37 -238 -24 -7 4 -10 52 -9 125
l2 120 50 2 c28 1 62 5 78 8 15 3 39 8 54 11 14 3 35 11 45 16 11 6 28 12 39
14 10 2 31 11 46 19 16 8 44 22 63 31 19 9 37 19 40 23 3 4 24 20 48 36 24 16
54 42 67 57 12 15 26 25 29 22 3 -4 6 -1 6 5 0 7 8 20 18 30 34 35 112 164
112 185 0 5 6 23 14 40 25 56 41 130 41 189 l0 57 210 0 c116 0 248 0 295 0
47 0 114 0 150 0 122 -2 111 -13 107 99 -3 53 -8 106 -12 117 -38 106 -109
187 -200 229 -32 15 -66 28 -75 29 -8 1 -21 6 -27 10 -7 5 -16 6 -20 4 -5 -3
-16 -1 -27 2 -17 6 -19 19 -21 115 -1 114 8 142 44 132 9 -3 38 -7 64 -11 76
-9 204 -57 243 -90 7 -5 24 -19 39 -30 86 -66 205 -216 205 -260 0 -9 7 -29
15 -46 9 -16 13 -34 10 -39 -3 -6 -2 -10 3 -10 9 0 11 -16 15 -152 2 -48 6
-91 10 -94 3 -4 41 -6 84 -6 43 1 112 1 153 1 157 -2 252 0 258 6 8 8 7 221
-1 260 -4 17 -9 44 -13 60 -5 26 -25 98 -40 145 -3 8 -4 16 -2 16 2 1 -5 11
-15 21 -9 11 -14 23 -10 27 4 4 3 10 -3 14 -5 4 -27 42 -48 85 -22 42 -43 77
-48 77 -4 0 -8 6 -8 13 -1 25 -156 193 -234 252 -21 17 -44 35 -50 41 -6 6
-15 12 -21 14 -15 4 -59 33 -66 43 -3 5 -10 9 -15 9 -5 1 -41 16 -80 34 -69
32 -151 62 -190 69 -10 2 -19 4 -19 5 0 1 -16 3 -35 6 -19 2 -49 8 -67 13 -40
11 -47 3 -48 -61 -1 -50 5 -56 55 -64 34 -5 65 -12 65 -14 0 -1 12 -3 26 -4
14 -2 31 -6 37 -10 7 -4 21 -9 32 -11 19 -4 133 -58 223 -106 20 -12 37 -25
37 -30 0 -5 5 -9 12 -9 13 0 19 -5 108 -92 63 -61 140 -150 140 -162 0 -4 12
-25 26 -48 14 -23 27 -47 28 -54 1 -6 7 -18 13 -25 6 -8 17 -32 24 -54 8 -22
16 -42 19 -45 6 -6 10 -24 15 -62 2 -15 6 -31 9 -36 5 -9 14 -70 21 -144 4
-39 1 -49 -15 -58 -12 -7 -21 -7 -25 0 -4 6 -13 7 -24 1 -10 -6 -23 -6 -31 -1
-8 5 -21 5 -29 1 -23 -11 -110 -6 -123 7 -6 6 -12 24 -13 39 -4 60 -17 133
-26 139 -5 3 -9 13 -9 22 0 9 -14 46 -30 81 -72 151 -185 274 -318 346 -62 34
-166 73 -210 79 -15 3 -48 8 -73 13 -25 6 -55 8 -67 6 -12 -1 -23 0 -23 5 -1
4 -2 84 -3 179 0 94 -5 175 -9 180 -13 12 -107 11 -109 -2z m192 -850 c0 4 28
-10 103 -52 12 -7 19 -13 15 -13 -4 0 4 -12 17 -26 30 -32 58 -103 53 -135 -3
-24 -5 -24 -123 -25 -66 -1 -125 3 -131 7 -6 5 -10 54 -9 124 0 125 7 141 52
124 12 -5 23 -6 23 -4z m-952 -402 c4 -40 -35 -117 -80 -160 -32 -30 -109 -63
-148 -63 -33 0 -34 5 -31 213 l1 48 128 -3 127 -3 3 -32z"/>
</g>
</svg>
